<svg xmlns="http://www.w3.org/2000/svg" xmlns:xlink="http://www.w3.org/1999/xlink" width="18" height="18" viewBox="0 0 18 18">
    <defs>
        <path id="a" d="M11.651 17.164L6.024 14.35l-4.902 2.801A.75.75 0 0 1 0 16.5v-12a.75.75 0 0 1 .378-.651L5.616.855a.747.747 0 0 1 .733-.02l5.627 2.815L16.878.849A.75.75 0 0 1 18 1.5v12a.75.75 0 0 1-.378.651l-5.238 2.994a.747.747 0 0 1-.733.02zm-.401-12.2l-4.5-2.25v10.322l4.5 2.25V4.964zm1.5-.029v10.273l3.75-2.143V2.792l-3.75 2.143zm-7.5-2.143L1.5 4.935v10.273l3.75-2.143V2.792z"/>
    </defs>
    <g fill="none" fill-rule="evenodd">
        <mask id="b" fill="#000">
            <use xlink:href="#a"/>
        </mask>
        <use fill="#000" fill-rule="nonzero" xlink:href="#a"/>
        <g fill="#FFF" mask="url(#b)">
            <path d="M0 0h18v18H0z"/>
        </g>
    </g>
</svg>
